<svg xmlns="http://www.w3.org/2000/svg" width="32" height="32" viewBox="0 0 32 32">
  <defs>
    <radialGradient id="bg" cx="50%" cy="50%" r="50%">
      <stop offset="0%" stop-color="#1a1c2e"/>
      <stop offset="100%" stop-color="#0f1117"/>
    </radialGradient>
  </defs>
  <circle cx="16" cy="16" r="16" fill="url(#bg)"/>
  <!-- Grid-like particle sphere dots arranged on latitude rings -->
  <!-- Back dots (small, dim) -->
  <circle cx="16" cy="6" r="0.7" fill="#9b59b6" opacity="0.3"/>
  <circle cx="20" cy="6.5" r="0.6" fill="#8e44ad" opacity="0.25"/>
  <circle cx="12" cy="6.5" r="0.6" fill="#a855f7" opacity="0.25"/>
  <circle cx="23" cy="8" r="0.7" fill="#7c3aed" opacity="0.3"/>
  <circle cx="9" cy="8" r="0.7" fill="#c084fc" opacity="0.3"/>
  <!-- Mid-back dots -->
  <circle cx="7" cy="11" r="0.9" fill="#6366f1" opacity="0.4"/>
  <circle cx="25" cy="11" r="0.9" fill="#818cf8" opacity="0.4"/>
  <circle cx="16" cy="5.5" r="0.8" fill="#a78bfa" opacity="0.35"/>
  <circle cx="11" cy="7" r="0.8" fill="#c084fc" opacity="0.35"/>
  <circle cx="21" cy="7" r="0.8" fill="#a78bfa" opacity="0.35"/>
  <!-- Mid dots -->
  <circle cx="6" cy="14" r="1.0" fill="#3b82f6" opacity="0.5"/>
  <circle cx="26" cy="14" r="1.0" fill="#60a5fa" opacity="0.5"/>
  <circle cx="6" cy="18" r="1.0" fill="#22d3ee" opacity="0.5"/>
  <circle cx="26" cy="18" r="1.0" fill="#06b6d4" opacity="0.5"/>
  <!-- Mid-front dots -->
  <circle cx="7.5" cy="21" r="1.2" fill="#10b981" opacity="0.6"/>
  <circle cx="24.5" cy="21" r="1.2" fill="#34d399" opacity="0.6"/>
  <circle cx="10" cy="24" r="1.1" fill="#a3e635" opacity="0.55"/>
  <circle cx="22" cy="24" r="1.1" fill="#84cc16" opacity="0.55"/>
  <!-- Front dots (large, bright) -->
  <circle cx="13" cy="10" r="1.3" fill="#c084fc" opacity="0.65"/>
  <circle cx="19" cy="10" r="1.3" fill="#a78bfa" opacity="0.65"/>
  <circle cx="16" cy="12" r="1.4" fill="#818cf8" opacity="0.7"/>
  <circle cx="11" cy="14" r="1.4" fill="#6366f1" opacity="0.7"/>
  <circle cx="21" cy="14" r="1.4" fill="#60a5fa" opacity="0.7"/>
  <circle cx="9" cy="17" r="1.5" fill="#22d3ee" opacity="0.75"/>
  <circle cx="23" cy="17" r="1.5" fill="#06b6d4" opacity="0.75"/>
  <circle cx="16" cy="16" r="1.6" fill="#3b82f6" opacity="0.75"/>
  <circle cx="12" cy="19" r="1.5" fill="#10b981" opacity="0.75"/>
  <circle cx="20" cy="19" r="1.5" fill="#34d399" opacity="0.75"/>
  <circle cx="16" cy="21" r="1.6" fill="#22c55e" opacity="0.8"/>
  <circle cx="13" cy="23" r="1.4" fill="#84cc16" opacity="0.7"/>
  <circle cx="19" cy="23" r="1.4" fill="#a3e635" opacity="0.7"/>
  <circle cx="16" cy="25" r="1.5" fill="#eab308" opacity="0.75"/>
  <circle cx="12" cy="26" r="1.2" fill="#f59e0b" opacity="0.65"/>
  <circle cx="20" cy="26" r="1.2" fill="#f97316" opacity="0.65"/>
  <circle cx="16" cy="27.5" r="1.0" fill="#ef4444" opacity="0.6"/>
</svg>
